<svg width="30" height="30" viewBox="0 0 30 30" fill="none" xmlns="http://www.w3.org/2000/svg">
<path d="M26.25 25.0001C26.25 25.3316 26.1183 25.6496 25.8839 25.884C25.6495 26.1184 25.3315 26.2501 25 26.2501H5C4.66848 26.2501 4.35054 26.1184 4.11612 25.884C3.8817 25.6496 3.75 25.3316 3.75 25.0001V11.8626C3.74987 11.6721 3.79327 11.4841 3.8769 11.313C3.96052 11.1419 4.08215 10.9921 4.2325 10.8751L14.2325 3.09638C14.4519 2.92568 14.722 2.83301 15 2.83301C15.278 2.83301 15.5481 2.92568 15.7675 3.09638L25.7675 10.8751C25.9179 10.9921 26.0395 11.1419 26.1231 11.313C26.2067 11.4841 26.2501 11.6721 26.25 11.8626V25.0001Z" fill="#003CA6"/>
</svg>
